<?xml version="1.0" standalone="no"?>
<!DOCTYPE svg PUBLIC "-//W3C//DTD SVG 20010904//EN"
 "http://www.w3.org/TR/2001/REC-SVG-20010904/DTD/svg10.dtd">
<svg version="1.0" xmlns="http://www.w3.org/2000/svg"
 width="300.000000pt" height="250.000000pt" viewBox="0 0 300.000000 250.000000"
 preserveAspectRatio="xMidYMid meet">
<metadata>
Created by potrace 1.10, written by Peter Selinger 2001-2011
</metadata>
<g transform="translate(0.000000,250.000000) scale(0.050000,-0.050000)"
fill="#000000" stroke="none">
<path d="M5242 4678 c-139 -27 -230 -98 -447 -346 l-68 -77 -74 103 c-144 201
-343 238 -549 104 -89 -57 -93 -58 -168 -28 -268 107 -556 -127 -556 -451 0
-224 -22 -223 -213 12 -95 117 -195 217 -253 253 l-97 60 -170 -25 -169 -24
-164 153 c-295 276 -408 320 -560 217 -43 -29 -69 -61 -61 -73 7 -13 4 -17 -8
-9 -37 23 -418 -450 -394 -489 6 -10 2 -18 -9 -18 -43 0 -45 -95 -5 -175 40
-78 166 -205 204 -205 12 0 19 -176 19 -456 l0 -455 -195 -23 c-107 -13 -199
-19 -205 -13 -5 6 -14 237 -20 514 -9 456 -14 509 -50 571 -141 239 -423 255
-625 35 l-85 -92 0 -842 0 -841 48 -70 c69 -103 167 -168 251 -168 71 0 801
111 866 132 33 10 35 -25 35 -553 0 -614 14 -725 115 -899 72 -123 226 -284
260 -271 15 6 22 2 15 -10 -31 -49 174 -108 380 -108 215 -1 444 50 418 93 -9
14 -5 17 11 7 15 -10 33 -5 42 11 10 15 33 28 53 28 20 0 34 11 31 24 -2 14 7
20 21 15 14 -6 76 40 137 100 132 131 131 131 203 41 103 -130 202 -151 405
-88 138 42 249 221 249 399 0 86 7 104 40 113 22 6 40 19 40 28 0 10 14 18 31
18 17 0 26 -8 20 -18 -15 -25 156 20 173 46 8 11 20 15 28 7 27 -27 251 113
344 215 306 334 334 889 60 1176 -87 92 -92 114 -35 165 82 74 123 168 136
313 17 184 36 187 162 18 222 -300 421 -368 680 -232 282 148 265 290 -97 808
-111 158 -202 293 -202 301 0 7 82 125 183 262 293 400 325 506 191 634 -115
108 -175 122 -372 83z m-3237 -236 c31 -32 123 -115 205 -185 208 -174 200
-256 -24 -277 l-108 -10 1 -1547 c2 -1286 7 -1558 30 -1614 89 -212 446 -195
601 28 l60 86 6 584 c3 320 13 590 21 598 19 19 320 71 333 58 21 -21 9 -1104
-12 -1207 -149 -701 -1177 -885 -1369 -245 -24 79 -29 359 -29 1650 l0 1554
-125 -26 c-243 -51 -235 20 40 350 240 288 273 306 370 203z m3535 29 c0 -16
-9 -34 -19 -40 -11 -7 -141 -173 -290 -370 l-271 -358 46 -57 c25 -31 158
-212 295 -403 137 -192 258 -360 268 -375 28 -38 14 -45 -140 -67 -77 -11
-166 -25 -200 -32 -55 -11 -67 -4 -120 74 -32 48 -100 141 -150 207 -50 66
-120 163 -156 215 -83 121 -78 122 -206 -50 l-107 -145 -10 -209 -10 -208
-158 -27 c-87 -15 -162 -23 -166 -19 -9 9 -8 1658 1 1667 10 10 322 62 330 54
4 -3 6 -173 4 -377 -3 -364 8 -426 58 -333 15 28 534 727 594 800 7 8 327 75
382 80 14 1 25 -11 25 -27z m-1600 -1059 c0 -708 -4 -829 -29 -839 -16 -6 -95
-16 -175 -23 l-146 -11 -140 181 c-480 620 -594 762 -603 753 -5 -5 -9 -247
-8 -539 l2 -529 -65 -12 c-36 -6 -113 -18 -171 -25 l-105 -13 5 837 5 838 130
24 c72 13 144 25 161 25 25 1 487 -562 726 -885 79 -106 77 -117 74 463 -2
406 3 523 23 536 27 16 162 40 261 44 l55 3 0 -828z m-3080 -314 l0 -682 45
10 c25 6 77 16 115 22 56 9 401 64 490 79 12 2 20 -61 20 -157 l0 -160 -70
-15 c-38 -8 -254 -42 -480 -76 -226 -33 -422 -63 -436 -65 -26 -4 -39 1637
-13 1664 10 10 223 52 304 60 20 1 25 -147 25 -680z m2378 -456 c78 -98 142
-186 142 -197 0 -42 -163 -129 -217 -116 -29 7 -75 13 -103 14 -27 0 -39 5
-25 10 18 7 25 75 25 239 0 274 0 274 178 50z m-868 -368 c35 -49 96 -101 146
-124 l85 -40 -5 -553 -6 -553 -65 -62 c-78 -75 -191 -86 -224 -23 -24 45 -30
1442 -6 1440 8 -1 42 -39 75 -85z m2052 -44 c317 -223 228 -849 -149 -1043
-90 -47 -237 -86 -428 -114 l-175 -25 0 -238 0 -238 -60 -14 c-99 -24 -280
-54 -286 -48 -7 6 -5 1676 1 1681 3 2 149 27 325 56 442 71 654 66 772 -17z"/>
<path d="M3813 1959 c-53 -9 -108 -21 -122 -26 -33 -13 -38 -573 -4 -573 343
0 592 159 593 377 0 214 -134 278 -467 222z m246 -246 c-2 -96 -179 -131 -179
-36 0 53 8 61 65 67 80 8 115 -1 114 -31z"/>
</g>
</svg>
